# xmcd CD database file
#
# Track frame offsets:
#	150
#	17193
#	40165
#	53298
#	71623
#	92978
#	110060
#	125345
#	139768
#	153215
#
# Disc length: 2476 seconds
#
# Revision: 4
# Processed by: cddbd v1.5.2PL0 Copyright (c) Steve Scherf et al.
# Submitted via: CDex 1.51
#
DISCID=8009aa0a
DTITLE=Y and T - Earthshaker
DYEAR=1981
DGENRE=Hard Rock
TTITLE0=Hungry For Rock
TTITLE1=Dirty Girl
TTITLE2=Shake It Loose
TTITLE3=Squeeze
TTITLE4=Rescue Me
TTITLE5=Young And Tough
TTITLE6=Hurricane
TTITLE7=Let Me Go
TTITLE8=Knock You Out
TTITLE9=I Believe In You
EXTD=YEAR: 1981
EXTT0=
EXTT1=
EXTT2=
EXTT3=
EXTT4=
EXTT5=
EXTT6=
EXTT7=
EXTT8=
EXTT9=
PLAYORDER=
